<svg xmlns="http://www.w3.org/2000/svg" height="48" viewBox="0 -960 960 960" width="48"><path d="M639.412-404Q584-404 547.5-440.176 511-476.353 511-532.059q0-55.706 36.76-92.323Q584.52-661 640.176-661q55.241 0 91.532 36.794Q768-587.412 768-531.706T731.412-440q-36.589 36-92 36ZM388-149v-75.588q0-21.876 9.947-41.273Q407.895-285.257 426-294q46.14-32 101.555-48.5Q582.969-359 640.093-359 696-359 751-341.5T854-294q15.737 11.671 26.868 29.393Q892-246.885 892-225.43V-149H388Zm77-84v11h350v-11q-39.097-24-85.549-38.5Q683-286 639.5-286q-43.5 0-90.5 14.5T465-233Zm174.5-244q24.062 0 39.781-15Q695-507 695-532t-15.575-40.5Q663.85-588 640-588q-25 0-40.5 15.5T584-532q0 25 15.719 40t39.781 15Zm.5-55Zm0 310ZM107-398v-73h308v73H107Zm0-349v-73h472v73H107Zm349 175H107v-73h379q-11 16-18.727 34.421Q459.545-592.159 456-572Z"/></svg>